
<svg aria-hidden="true" style="position: absolute; width: 0; height: 0; overflow: hidden;" version="1.1" xmlns="http://www.w3.org/2000/svg" xmlns:xlink="http://www.w3.org/1999/xlink">
<defs>

<symbol id="icon-find-closes" viewBox="0 0 32 32">
<path d="M24.943 8.943c0.521-0.521 0.521-1.365 0-1.886s-1.365-0.521-1.886 0l-7.057 7.057-7.057-7.057c-0.521-0.521-1.365-0.521-1.886 0s-0.521 1.365 0 1.886l7.057 7.057-7.057 7.057c-0.521 0.521-0.521 1.365 0 1.886s1.365 0.521 1.886 0l7.057-7.057 7.057 7.057c0.521 0.521 1.365 0.521 1.886 0s0.521-1.365 0-1.886l-7.057-7.057 7.057-7.057z"></path>
</symbol>
<symbol id="icon-find-close" viewBox="0 0 18 18">
<path d="M9 1c-4.418 0-8 3.582-8 8s3.582 8 8 8 8-3.582 8-8-3.582-8-8-8zM9 15c-3.309 0-6-2.691-6-6s2.691-6 6-6 6 2.691 6 6-2.691 6-6 6z"></path>
<path d="M11.722 6.292l-0.014-0.014c-0.371-0.371-0.973-0.371-1.344 0l-1.364 1.364-1.364-1.364c-0.371-0.371-0.973-0.371-1.344 0l-0.014 0.014c-0.371 0.371-0.371 0.973 0 1.344l1.364 1.364-1.364 1.364c-0.371 0.371-0.371 0.973 0 1.344l0.014 0.014c0.371 0.371 0.973 0.371 1.344 0l1.364-1.364 1.364 1.364c0.371 0.371 0.973 0.371 1.344 0l0.014-0.014c0.371-0.371 0.371-0.973 0-1.344l-1.364-1.364 1.364-1.364c0.371-0.371 0.371-0.973 0-1.344z"></path>
</symbol>
<symbol id="icon-telegram" viewBox="0 0 32 32">
<path d="M15.925 0c-8.804 0.042-15.925 7.19-15.925 16 0 0 0 0 0 0v0c0 8.837 7.163 16 16 16v0c8.837 0 16-7.163 16-16v0c0-8.837-7.163-16-16-16v0c-0.011-0-0.024-0-0.037-0s-0.026 0-0.039 0h0.002zM22.541 9.632c0.133-0.003 0.428 0.031 0.62 0.187 0.124 0.108 0.208 0.259 0.228 0.43l0 0.003c0.021 0.124 0.048 0.408 0.027 0.629-0.24 2.531-1.283 8.669-1.813 11.503-0.224 1.2-0.665 1.601-1.093 1.64-0.928 0.087-1.633-0.613-2.533-1.203-1.408-0.924-2.204-1.499-3.571-2.4-1.58-1.040-0.556-1.613 0.344-2.547 0.236-0.245 4.329-3.969 4.409-4.307 0.009-0.043 0.019-0.2-0.075-0.283s-0.232-0.055-0.332-0.032c-0.141 0.032-2.391 1.52-6.748 4.46-0.64 0.44-1.217 0.653-1.736 0.64-0.571-0.011-1.669-0.321-2.487-0.587-1.003-0.327-1.799-0.499-1.729-1.052 0.036-0.288 0.433-0.583 1.191-0.884 4.664-2.032 7.773-3.372 9.331-4.019 4.443-1.848 5.367-2.169 5.968-2.18z"></path>
</symbol>
<symbol id="icon-linkedin" viewBox="0 0 32 32">
<path d="M27.263 27.269h-4.739v-7.425c0-1.771-0.036-4.049-2.469-4.049-2.471 0-2.848 1.927-2.848 3.919v7.556h-4.739v-15.269h4.552v2.081h0.061c0.636-1.2 2.183-2.467 4.493-2.467 4.801 0 5.689 3.16 5.689 7.273v8.381zM7.116 9.911c-1.525 0-2.751-1.235-2.751-2.753 0-1.517 1.227-2.751 2.751-2.751 1.52 0 2.752 1.233 2.752 2.751 0 1.519-1.233 2.753-2.752 2.753zM9.492 27.269h-4.752v-15.269h4.752v15.269zM29.633 0h-27.272c-1.305 0-2.361 1.032-2.361 2.305v27.389c0 1.275 1.056 2.305 2.361 2.305h27.268c1.304 0 2.371-1.031 2.371-2.305v-27.389c0-1.273-1.067-2.305-2.371-2.305h0.004z"></path>
</symbol>
<symbol id="icon-github" viewBox="0 0 32 32">
<path d="M16 0.396c-8.84 0-16 7.164-16 16 0 7.071 4.584 13.067 10.94 15.18 0.8 0.151 1.093-0.344 1.093-0.769 0-0.38-0.013-1.387-0.020-2.72-4.451 0.965-5.389-2.147-5.389-2.147-0.728-1.847-1.78-2.34-1.78-2.34-1.449-0.992 0.112-0.972 0.112-0.972 1.607 0.112 2.451 1.648 2.451 1.648 1.427 2.447 3.745 1.74 4.66 1.331 0.144-1.035 0.556-1.74 1.013-2.14-3.553-0.4-7.288-1.776-7.288-7.907 0-1.747 0.62-3.173 1.647-4.293-0.18-0.404-0.72-2.031 0.14-4.235 0 0 1.34-0.429 4.4 1.64 1.28-0.356 2.64-0.532 4-0.54 1.36 0.008 2.72 0.184 4 0.54 3.040-2.069 4.38-1.64 4.38-1.64 0.86 2.204 0.32 3.831 0.16 4.235 1.020 1.12 1.64 2.547 1.64 4.293 0 6.147-3.74 7.5-7.3 7.893 0.56 0.48 1.080 1.461 1.080 2.96 0 2.141-0.020 3.861-0.020 4.381 0 0.42 0.28 0.92 1.1 0.76 6.401-2.099 10.981-8.099 10.981-15.159 0-8.836-7.164-16-16-16z"></path>
</symbol>
<symbol id="icon-icon-find" viewBox="0 0 32 32">
<path d="M5.6 14.667c0 5.007 4.059 9.067 9.067 9.067 2.436 0 4.647-0.96 6.276-2.523 0.039-0.049 0.081-0.096 0.126-0.142s0.092-0.087 0.142-0.126c1.563-1.629 2.523-3.84 2.523-6.276 0-5.007-4.059-9.067-9.067-9.067s-9.067 4.059-9.067 9.067zM22.135 24.398c-2.068 1.59-4.658 2.535-7.469 2.535-6.775 0-12.267-5.492-12.267-12.267s5.492-12.267 12.267-12.267c6.775 0 12.267 5.492 12.267 12.267 0 2.811-0.945 5.4-2.535 7.469l4.733 4.733c0.625 0.625 0.625 1.638 0 2.263s-1.638 0.625-2.263 0l-4.733-4.733z"></path>
</symbol>
<symbol id="icon-link" viewBox="0 0 32 32">
<path d="M22.661 1.422c-2.098-0.018-4.118 0.788-5.627 2.245l-0.014 0.014-2.293 2.28c-0.522 0.519-0.525 1.363-0.005 1.886s1.363 0.525 1.886 0.005l2.286-2.273c1.005-0.968 2.35-1.503 3.745-1.491 1.398 0.012 2.736 0.573 3.725 1.562s1.55 2.326 1.562 3.725c0.012 1.395-0.523 2.739-1.489 3.744l-3.991 3.991c-0.541 0.541-1.192 0.959-1.908 1.227s-1.482 0.377-2.245 0.323c-0.763-0.055-1.505-0.273-2.176-0.639s-1.256-0.873-1.714-1.486c-0.441-0.59-1.277-0.71-1.866-0.269s-0.71 1.277-0.269 1.866c0.687 0.919 1.564 1.679 2.571 2.229s2.12 0.877 3.264 0.959c1.144 0.082 2.293-0.083 3.367-0.484s2.051-1.028 2.862-1.84l4.016-4.016c1.457-1.509 2.264-3.53 2.245-5.627s-0.86-4.104-2.343-5.587c-1.483-1.483-3.49-2.325-5.587-2.343z"></path>
<path d="M13.9 10.68c-1.144-0.082-2.293 0.083-3.368 0.484s-2.051 1.028-2.862 1.839l-4.016 4.017c-1.457 1.509-2.264 3.53-2.245 5.627s0.86 4.104 2.343 5.587 3.49 2.325 5.587 2.343c2.098 0.018 4.118-0.788 5.627-2.245l0.017-0.016 2.28-2.28c0.521-0.521 0.521-1.365 0-1.886s-1.365-0.521-1.886 0l-2.271 2.271c-1.005 0.967-2.349 1.502-3.744 1.489-1.398-0.012-2.736-0.573-3.725-1.562s-1.55-2.326-1.562-3.725c-0.012-1.395 0.523-2.739 1.489-3.744l3.991-3.991c0.541-0.541 1.192-0.959 1.908-1.227s1.482-0.377 2.245-0.323c0.763 0.055 1.505 0.273 2.176 0.639s1.256 0.873 1.714 1.486c0.441 0.59 1.277 0.71 1.866 0.269s0.71-1.277 0.269-1.866c-0.687-0.919-1.564-1.679-2.57-2.229s-2.12-0.877-3.264-0.959z"></path>
</symbol>
<symbol id="icon-briefcase" viewBox="0 0 32 32">
<path d="M13.334 2.667c-1.061 0-2.078 0.421-2.828 1.172s-1.172 1.768-1.172 2.828v1.333h-4c-2.209 0-4 1.791-4 4v13.333c0 2.209 1.791 4 4 4h21.333c2.209 0 4-1.791 4-4v-13.333c0-2.209-1.791-4-4-4h-4v-1.333c0-1.061-0.421-2.078-1.172-2.828s-1.768-1.172-2.828-1.172h-5.333zM20 8v-1.333c0-0.354-0.14-0.693-0.39-0.943s-0.589-0.391-0.943-0.391h-5.333c-0.354 0-0.693 0.14-0.943 0.391s-0.391 0.589-0.391 0.943v1.333h8zM12 10.667h8v16h-8v-16zM9.334 10.667h-4c-0.736 0-1.333 0.597-1.333 1.333v13.333c0 0.736 0.597 1.334 1.333 1.334h4v-16zM22.667 26.667v-16h4c0.736 0 1.334 0.597 1.334 1.333v13.333c0 0.736-0.597 1.334-1.334 1.334h-4z"></path>
</symbol>
<symbol id="icon-map" viewBox="0 0 32 32">
<path d="M16 8c-2.946 0-5.333 2.388-5.333 5.333s2.388 5.333 5.333 5.333c2.945 0 5.333-2.388 5.333-5.333s-2.388-5.333-5.333-5.333zM13.333 13.333c0-1.473 1.194-2.667 2.667-2.667s2.667 1.194 2.667 2.667c0 1.473-1.194 2.667-2.667 2.667s-2.667-1.194-2.667-2.667z"></path>
<path d="M15.259 31.776c0 0 0.001 0 0.74-1.109l-0.74 1.109c0.448 0.298 1.032 0.299 1.48 0l-0.74-1.109c0.74 1.109 0.739 1.11 0.74 1.109l0.005-0.003 0.009-0.006 0.031-0.021c0.026-0.018 0.063-0.043 0.11-0.076 0.095-0.066 0.231-0.161 0.402-0.285 0.343-0.248 0.829-0.609 1.409-1.072 1.159-0.923 2.709-2.257 4.262-3.897 3.053-3.223 6.366-7.881 6.366-13.084 0-3.536-1.405-6.928-3.905-9.428s-5.892-3.905-9.428-3.905-6.928 1.405-9.428 3.905c-2.5 2.501-3.905 5.892-3.905 9.428 0 5.203 3.312 9.861 6.365 13.084 1.554 1.64 3.103 2.974 4.262 3.897 0.581 0.462 1.066 0.824 1.409 1.072 0.172 0.124 0.308 0.219 0.402 0.285 0.047 0.033 0.084 0.058 0.11 0.076l0.031 0.021 0.009 0.006 0.004 0.003zM8.457 5.791c2-2 4.713-3.124 7.542-3.124s5.542 1.124 7.543 3.124c2 2 3.124 4.714 3.124 7.542 0 4.131-2.688 8.139-5.635 11.25-1.446 1.526-2.897 2.776-3.988 3.645-0.406 0.323-0.76 0.592-1.044 0.802-0.284-0.21-0.639-0.479-1.044-0.802-1.091-0.869-2.541-2.118-3.988-3.645-2.947-3.111-5.635-7.119-5.635-11.25 0-2.829 1.124-5.542 3.124-7.542z"></path>
</symbol>
<symbol id="icon-mail" viewBox="0 0 32 32">
<path d="M1.334 7.977c-0 0.013-0 0.026-0 0.039v15.984c0 2.203 1.797 4 4 4h21.333c2.203 0 4-1.797 4-4v-15.984c0-0.013 0-0.027 0-0.040-0.013-2.192-1.805-3.977-4-3.977h-21.333c-2.195 0-3.987 1.784-4 3.977zM4.143 7.405c0.221-0.436 0.674-0.739 1.191-0.739h21.333c0.517 0 0.971 0.303 1.191 0.739l-11.858 8.301-11.858-8.301zM28 10.561v13.439c0 0.73-0.603 1.333-1.333 1.333h-21.333c-0.73 0-1.333-0.603-1.333-1.333v-13.439l11.235 7.865c0.459 0.321 1.070 0.321 1.529 0l11.235-7.865z"></path>
</symbol>
<symbol id="icon-download" viewBox="0 0 32 32">
<path d="M17.333 4c0-0.736-0.597-1.333-1.333-1.333s-1.333 0.597-1.333 1.333v12.781l-4.391-4.391c-0.521-0.521-1.365-0.521-1.886 0s-0.521 1.365 0 1.886l6.667 6.667c0.521 0.521 1.365 0.521 1.886 0l6.667-6.667c0.521-0.521 0.521-1.365 0-1.886s-1.365-0.521-1.886 0l-4.391 4.391v-12.781z"></path>
<path d="M4 18.667c0.736 0 1.333 0.597 1.333 1.333v5.333c0 0.354 0.14 0.693 0.391 0.943s0.589 0.391 0.943 0.391h18.667c0.354 0 0.693-0.141 0.943-0.391s0.391-0.589 0.391-0.943v-5.333c0-0.736 0.597-1.333 1.333-1.333s1.333 0.597 1.333 1.333v5.333c0 1.061-0.421 2.078-1.172 2.828s-1.767 1.172-2.828 1.172h-18.667c-1.061 0-2.078-0.421-2.828-1.172s-1.172-1.767-1.172-2.828v-5.333c0-0.736 0.597-1.333 1.333-1.333z"></path>
</symbol>
</defs>
</svg>
