<!-- Generated by IcoMoon.io -->
<svg version="1.1" xmlns="http://www.w3.org/2000/svg" width="1024" height="1024" viewBox="0 0 1024 1024">
<g id="icomoon-ignore">
</g>
<path fill="#000" d="M798.162 286.168c16.66-16.662 16.66-43.677 0-60.34s-43.679-16.662-60.339 0l-225.831 225.83-225.83-225.83c-16.662-16.662-43.677-16.662-60.34 0s-16.663 43.678 0 60.34l225.83 225.83-225.83 225.83c-16.663 16.66-16.663 43.679 0 60.339 16.663 16.666 43.678 16.666 60.34 0l225.83-225.828 225.831 225.828c16.66 16.666 43.679 16.666 60.339 0 16.66-16.66 16.66-43.679 0-60.339l-225.833-225.83 225.833-225.83z"></path>
</svg>
